<svg xmlns="http://www.w3.org/2000/svg" viewBox="0 0 1024 1024" width="1024" height="1024">
  <defs>
    <linearGradient id="bg3" x1="0" y1="0" x2="0" y2="1">
      <stop offset="0" stop-color="#0C2138"/>
      <stop offset="1" stop-color="#174A73"/>
    </linearGradient>
    <radialGradient id="glow3" cx="0.5" cy="0.42" r="0.55">
      <stop offset="0" stop-color="#49A6E8" stop-opacity="0.5"/>
      <stop offset="1" stop-color="#49A6E8" stop-opacity="0"/>
    </radialGradient>
    <linearGradient id="peak3" x1="0" y1="0" x2="0.6" y2="1">
      <stop offset="0" stop-color="#C9ECFF"/>
      <stop offset="1" stop-color="#4FAEE8"/>
    </linearGradient>
    <linearGradient id="snow3" x1="0" y1="0" x2="0" y2="1">
      <stop offset="0" stop-color="#FFFFFF"/>
      <stop offset="1" stop-color="#DDF2FF"/>
    </linearGradient>
    <linearGradient id="water3" x1="0" y1="0" x2="1" y2="0">
      <stop offset="0" stop-color="#8FE3FF" stop-opacity="0"/>
      <stop offset="0.5" stop-color="#CFF6FF"/>
      <stop offset="1" stop-color="#8FE3FF" stop-opacity="0"/>
    </linearGradient>
    <filter id="soft3" x="-40%" y="-40%" width="180%" height="180%">
      <feGaussianBlur stdDeviation="10"/>
    </filter>
  </defs>

  <rect width="1024" height="1024" rx="225" fill="url(#bg3)"/>
  <ellipse cx="512" cy="430" rx="400" ry="350" fill="url(#glow3)"/>

  <!-- 两颗冰晶星光 -->
  <path d="M712 275q9 27 36 36q-27 9-36 36q-9-27-36-36q27-9 36-36Z" fill="#E8F8FF"/>
  <path d="M330 330q5 19 24 24q-19 5-24 24q-5-19-24-24q19-5 24-24Z" fill="#BFE9FF" opacity="0.9"/>

  <!-- 水线与自然波纹（不规则排布） -->
  <ellipse cx="512" cy="613" rx="300" ry="18" fill="#7FD9FF" opacity="0.35" filter="url(#soft3)"/>
  <rect x="250" y="608" width="524" height="10" rx="5" fill="url(#water3)"/>
  <path d="M236 648q38 15 82 6" stroke="#8FE3FF" stroke-opacity="0.55" stroke-width="5" fill="none" stroke-linecap="round"/>
  <path d="M700 640q-34 14 -74 5" stroke="#8FE3FF" stroke-opacity="0.5" stroke-width="5" fill="none" stroke-linecap="round"/>
  <path d="M286 684q30 12 64 4" stroke="#8FE3FF" stroke-opacity="0.4" stroke-width="4" fill="none" stroke-linecap="round"/>
  <path d="M742 676q-26 11 -56 4" stroke="#8FE3FF" stroke-opacity="0.38" stroke-width="4" fill="none" stroke-linecap="round"/>
  <path d="M392 636q24 9 50 3" stroke="#8FE3FF" stroke-opacity="0.45" stroke-width="3.5" fill="none" stroke-linecap="round"/>
  <path d="M586 630q22 8 46 3" stroke="#8FE3FF" stroke-opacity="0.4" stroke-width="3.5" fill="none" stroke-linecap="round"/>
  <path d="M470 700q20 8 44 3" stroke="#8FE3FF" stroke-opacity="0.3" stroke-width="3" fill="none" stroke-linecap="round"/>

  <!-- A 字冰山峰 -->
  <path fill-rule="evenodd" fill="url(#peak3)" d="M512 296L690 608L334 608ZM512 436L566 548L458 548Z"/>
  <path d="M512 296L690 608L598 608L512 428Z" fill="#1E6FB8" opacity="0.3"/>
  <path d="M512 296L560 386Q545 402 528 390Q520 400 512 390Q504 400 496 390Q479 402 464 386Z" fill="url(#snow3)"/>
</svg>
